# xmcd
#
# Track frame offsets:
#	150
#	23727
#	39783
#	56621
#	71239
#	87419
#	105031
#	119829
#	137370
#	156518
#	172786
#	187390
#	207073
#	226987
#	245880
#	264403
#	283417
#	299646
#	318418
#
# Disc length: 4474 seconds
#
# Revision: 0
# Processed by: cddbd v1.4PL0 Copyright (c) Steve Scherf et al.
# Submitted via: EasyCDDAExtractor 4.5.0.1
#
DISCID=1e117813
DTITLE=Ruzica Cavic - Diskretna
DYEAR=1900
DGENRE=Pop
TTITLE0=Pesma boema
TTITLE1=Milena majko
TTITLE2=Sve ja to postujem
TTITLE3=Budis me
TTITLE4=Balada i ljubav
TTITLE5=Zivot
TTITLE6=Diskretna
TTITLE7=Oboje andjeli
TTITLE8=San
TTITLE9=Bila jednom ruza jedna
TTITLE10=Budis me
TTITLE11=Covek od soli
TTITLE12=Cama
TTITLE13=Dises mojim grudima
TTITLE14=Meseceva pesma
TTITLE15=Nikad ne reci uskoro
TTITLE16=Osveta
TTITLE17=Ovo je moja noc
TTITLE18=Za tebe andjele
EXTD=
EXTT0=
EXTT1=
EXTT2=
EXTT3=
EXTT4=
EXTT5=
EXTT6=
EXTT7=
EXTT8=
EXTT9=
EXTT10=
EXTT11=
EXTT12=
EXTT13=
EXTT14=
EXTT15=
EXTT16=
EXTT17=
EXTT18=
PLAYORDER=
